<svg class="cui-logo" enable-background="new 0 0 131 28" version="1.1" viewBox="0 0 131 28"
    xml:space="preserve" xmlns="http://www.w3.org/2000/svg"><path d="m77.9 22.8c-0.3-0.4-0.6-0.9-1.1-1.3l-9.8-9.8c-0.2-0.2-0.2-0.5 0-0.7l6.8-6.8c0.2-0.2 0.4-0.3 0.5-0.4s0.2-0.1 0.3-0.2c0.1 0 0.2 0 0.3 0.1l0.1 0.1c0.1 0.1 0.2 0.2 0.2 0.3s0 0.2-0.1 0.3c-0.1 0.2-0.3 0.4-0.5 0.6l-5.3 5.3c-0.5 0.5-0.5 1.4 0 1.9l0.2 0.2c0.5 0.5 1.4 0.5 1.9 0l5.4-5.4c0.5-0.5 0.8-0.9 1.1-1.3s0.4-1 0.3-1.6c-0.2-0.7-0.6-1.4-1.3-2.1l-0.1-0.1c-0.7-0.7-1.4-1.1-2-1.2s-1.2 0-1.6 0.3-0.9 0.6-1.3 1.1l-7 6.9c-0.2 0.2-0.5 0.2-0.7 0l-8.6-8.6c-0.5-0.5-1.4-0.5-1.9 0l-0.2 0.2c-0.5 0.5-0.5 1.4 0 1.9l21.4 21.4s0.1 0.3 0.1 0.4-0.1 0.2-0.2 0.3-0.2 0.2-0.3 0.2-0.2 0-0.4-0.1l-11.1-11.1-10.2-10.3c-0.5-0.5-1.4-0.5-1.9 0l-0.2 0.2c-0.5 0.5-0.5 1.4 0 1.9l8.6 8.6c0.2 0.2 0.2 0.5 0 0.7l-6.9 6.9c-0.4 0.4-0.8 0.9-1 1.3-0.3 0.4-0.4 1-0.3 1.6s0.5 1.3 1.2 2l0.1 0.1c0.7 0.7 1.4 1.1 2.1 1.2 0.6 0.1 1.2 0 1.6-0.3s0.9-0.6 1.3-1.1l5.4-5.4c0.5-0.5 0.5-1.4 0-1.9l-0.2-0.2c-0.5-0.5-1.4-0.5-1.9 0l-5.4 5.4c-0.2 0.2-0.4 0.4-0.5 0.4-0.1 0.1-0.2 0.1-0.3 0.1s-0.2-0.1-0.3-0.2l-0.1-0.1c-0.1 0-0.1-0.1-0.1-0.2s0.1-0.2 0.1-0.3c0.1-0.1 0.2-0.3 0.5-0.5l6.8-6.8c0.2-0.2 0.5-0.2 0.7 0l9.8 9.8c0.5 0.5 0.9 0.8 1.3 1.1s1 0.4 1.6 0.3 1.3-0.5 2.1-1.2l0.1-0.1c0.7-0.7 1.1-1.4 1.2-2.1 0-0.7-0.1-1.3-0.3-1.7z" fill="#F5C027"></path><path d="M46.4,0.1h-3.7l-3.8,12.8V0.1h-3.4V28h3.4V15.1l3.8,12.9h3.7L41.9,14L46.4,0.1z" fill="currentColor"></path><path d="m17 0h-1.2c-2.2 0-4 1.8-4 4v20c0 2.2 1.8 4 4 4h1.2c2.2 0 4-1.8 4-4v-20c0.1-2.2-1.8-4-4-4zm0.7 24c0 0.7-0.6 1.2-1.2 1.2-0.7 0-1.2-0.6-1.2-1.2v-20c0-0.7 0.6-1.2 1.2-1.2 0.7 0 1.2 0.6 1.2 1.2v20z" fill="currentColor"></path><path d="m28.8 0h-1.2c-2.2 0-4 1.8-4 4v20c0 2.2 1.8 4 4 4h1.2c2.2 0 4-1.8 4-4v-20c0-2.2-1.8-4-4-4zm0.6 24c0 0.7-0.6 1.2-1.2 1.2-0.7 0-1.2-0.6-1.2-1.2v-20c0-0.7 0.6-1.2 1.2-1.2 0.7 0 1.2 0.6 1.2 1.2v20z" fill="currentColor"></path><path d="M5.2,0H4C1.8,0,0,1.8,0,4V24c0,2.2,1.8,4,4,4h1.2c2.2,0,4-1.8,4-4v-6.2H5.9V24c0,0.7-0.6,1.2-1.2,1.2  S3.4,24.7,3.4,24V4c0-0.7,0.6-1.2,1.2-1.2S5.9,3.3,5.9,4v6.3h3.4V4C9.3,1.8,7.5,0,5.2,0z" fill="currentColor"></path><path d="m100.8 17.1-3.1-17.1h-3v27.9h3v-15.5l2.1 15.6h4v-28h-3v17.1z" fill="currentColor"></path><path d="M109.5,0h-3v27.9h3V0z" fill="currentColor"></path><path d="m113.9 0h-2v2.8h2v25.1h3v-25.1h2v-2.8h-5z" fill="currentColor"></path><path d="M128,0l-2,8.8l-2-8.8h-3l3.5,14.8v13.1h3V14.8L131,0H128z" fill="currentColor"></path><path d="M88.7,24c0,0.7-0.5,1.2-1.2,1.2s-1.2-0.6-1.2-1.2V0h-3.3v23.9c0,2.2,1.8,4,4,4H88c2.2,0,4-1.8,4-4V0h-3.3V24z" fill="currentColor"></path></svg>